<svg width="18" height="18" viewBox="0 0 18 18" fill="none" xmlns="http://www.w3.org/2000/svg">
<path d="M7.28264 8.46749C7.14141 8.32627 6.94987 8.24693 6.75014 8.24693C6.55041 8.24693 6.35887 8.32627 6.21764 8.46749C6.07641 8.60872 5.99707 8.80027 5.99707 8.99999C5.99707 9.19972 6.07641 9.39127 6.21764 9.53249L8.46764 11.7825C8.53772 11.852 8.62083 11.907 8.71221 11.9443C8.80359 11.9816 8.90143 12.0006 9.00014 12C9.10281 11.9967 9.20372 11.9724 9.29661 11.9286C9.3895 11.8847 9.47239 11.8222 9.54014 11.745L14.7901 5.74499C14.9114 5.59449 14.9698 5.403 14.9533 5.21046C14.9368 5.01791 14.8466 4.83917 14.7015 4.7115C14.5564 4.58383 14.3677 4.51709 14.1746 4.5252C13.9815 4.5333 13.799 4.61562 13.6651 4.75499L9.00014 10.155L7.28264 8.46749Z" fill="#00A14C"/>
<path d="M15.7501 8.25C15.5512 8.25 15.3604 8.32902 15.2198 8.46967C15.0791 8.61032 15.0001 8.80109 15.0001 9C15.0001 10.5913 14.368 12.1174 13.2427 13.2426C12.1175 14.3679 10.5914 15 9.0001 15C7.81517 14.9995 6.65693 14.6481 5.67143 13.9902C4.68593 13.3322 3.9173 12.3972 3.46246 11.3031C3.00763 10.2089 2.88696 9.00457 3.11567 7.84192C3.34438 6.67927 3.91223 5.61036 4.7476 4.77C5.30313 4.20704 5.96536 3.76053 6.69555 3.45661C7.42573 3.15269 8.2092 2.99746 9.0001 3C9.47969 3.003 9.95752 3.05833 10.4251 3.165C10.523 3.19527 10.626 3.20517 10.7278 3.1941C10.8296 3.18303 10.9281 3.15122 11.0172 3.10063C11.1062 3.05005 11.184 2.98175 11.2456 2.89997C11.3073 2.81818 11.3515 2.72463 11.3756 2.62509C11.3998 2.52554 11.4032 2.42211 11.3858 2.32117C11.3685 2.22024 11.3306 2.12393 11.2745 2.03819C11.2185 1.95246 11.1455 1.8791 11.06 1.82266C10.9746 1.76621 10.8785 1.72787 10.7776 1.71C10.195 1.57293 9.59864 1.50248 9.0001 1.5C7.51836 1.5077 6.07209 1.95414 4.84383 2.78299C3.61556 3.61184 2.66033 4.78595 2.09869 6.15715C1.53705 7.52835 1.39417 9.03519 1.68808 10.4875C1.98199 11.9398 2.69951 13.2726 3.7501 14.3175C5.14262 15.7107 7.03034 16.4954 9.0001 16.5C10.9892 16.5 12.8969 15.7098 14.3034 14.3033C15.7099 12.8968 16.5001 10.9891 16.5001 9C16.5001 8.80109 16.4211 8.61032 16.2804 8.46967C16.1398 8.32902 15.949 8.25 15.7501 8.25Z" fill="#00A14C"/>
</svg>
