<svg width="20" height="20" viewBox="0 0 20 20" fill="none" xmlns="http://www.w3.org/2000/svg">
<path d="M8.25977 12.0481C12.1298 12.0818 14.3193 12.8642 14.3193 14.9993C14.3189 17.0887 12.2203 17.8946 8.51953 17.9622L7.99316 17.967C3.95655 17.967 1.66737 17.1997 1.66699 15.0159C1.66699 12.8287 3.96532 12.0471 7.99316 12.0471L8.25977 12.0481ZM7.99316 13.2971C4.64537 13.2971 2.91699 13.885 2.91699 15.0159C2.91754 16.1392 4.64176 16.717 7.99316 16.717C11.3404 16.717 13.0687 16.1296 13.0693 14.9993C13.0693 13.8762 11.3441 13.2972 7.99316 13.2971ZM14.6562 11.4573C15.1399 11.4902 15.6209 11.5589 16.083 11.6614C17.0731 11.8583 17.8092 12.2262 18.1465 12.9338C18.3954 13.4577 18.3954 14.0673 18.1465 14.5911C17.8111 15.2969 17.0825 15.6617 16.0869 15.8665C15.7488 15.936 15.4182 15.7182 15.3486 15.3801C15.2794 15.0422 15.4971 14.7124 15.835 14.6428C16.4755 14.5111 16.9023 14.2972 17.0176 14.0549C17.1052 13.8705 17.1049 13.6547 17.0176 13.4709C16.9016 13.2278 16.4731 13.0139 15.8262 12.885C15.4118 12.7933 14.9925 12.733 14.5713 12.7043C14.227 12.6809 13.967 12.3826 13.9902 12.0383C14.0137 11.6939 14.3119 11.4339 14.6562 11.4573ZM7.99316 2.08325C10.3664 2.08344 12.2725 3.98887 12.2725 6.36157C12.2725 8.73497 10.3665 10.6407 7.99316 10.6409C5.61977 10.6409 3.71484 8.7352 3.71484 6.36157C3.71485 3.98864 5.61993 2.08326 7.99316 2.08325ZM13.3496 2.97485C15.212 2.97485 16.7226 4.48489 16.7227 6.34692C16.7227 8.2096 15.2123 9.71997 13.3496 9.71997C13.0048 9.71972 12.7248 9.43982 12.7246 9.09497C12.7246 8.74995 13.0046 8.47022 13.3496 8.46997C14.5219 8.46997 15.4727 7.51925 15.4727 6.34692C15.4726 5.17519 14.5216 4.22485 13.3496 4.22485C13.0047 4.2246 12.7248 3.94475 12.7246 3.59985C12.7246 3.25483 13.0046 2.97511 13.3496 2.97485ZM7.99316 3.33325C6.31033 3.33326 4.96485 4.67895 4.96484 6.36157C4.96484 8.04493 6.31022 9.39086 7.99316 9.39087C9.67616 9.39068 11.0225 8.04461 11.0225 6.36157C11.0225 4.67927 9.67604 3.33344 7.99316 3.33325Z" fill="#1E242A"/>
</svg>
