<svg width="20" height="20" viewBox="0 0 20 20" fill="none" xmlns="http://www.w3.org/2000/svg">
<g clip-path="url(#clip0_40_1504)">
<path d="M10 20C15.2855 20 19.5703 15.5228 19.5703 10C19.5703 4.47715 15.2855 0 10 0C4.71446 0 0.429688 4.47715 0.429688 10C0.429688 15.5228 4.71446 20 10 20Z" fill="#E88102"/>
<path d="M10 18.9453C15.2316 18.9453 19.4727 14.7043 19.4727 9.47266C19.4727 4.24105 15.2316 0 10 0C4.7684 0 0.527344 4.24105 0.527344 9.47266C0.527344 14.7043 4.7684 18.9453 10 18.9453Z" fill="#FDD835"/>
<path d="M13.7812 0.785156L1.3125 13.25C0.894531 12.293 0.632812 11.2539 0.554688 10.1641L10.6914 0.0234375C11.7812 0.105469 12.8203 0.367187 13.7812 0.785156ZM18.2539 4.82422L5.35156 17.7266C4.54688 17.2734 3.82031 16.707 3.18359 16.0469L16.5781 2.65625C17.2344 3.28906 17.8008 4.01953 18.2539 4.82422ZM16.1914 2.30078L2.83203 15.6602C2.625 15.418 2.42578 15.1641 2.24219 14.9023L15.4336 1.71094C15.6953 1.89453 15.9492 2.09375 16.1914 2.30078ZM19.1758 7.10937L7.63672 18.6484C7.28906 18.5586 6.94922 18.4492 6.61719 18.3242L18.8516 6.08984C18.9766 6.42187 19.0859 6.76172 19.1758 7.10937Z" fill="white" fill-opacity="0.313726"/>
<path d="M19.4727 9.47266C19.4727 9.53906 19.4727 9.60156 19.4688 9.66797C19.3672 4.52734 15.168 0.390625 10 0.390625C4.83203 0.390625 0.632813 4.52734 0.53125 9.66797C0.53125 9.60156 0.527344 9.53906 0.527344 9.47266C0.527344 4.24219 4.76953 0 10 0C15.2305 0 19.4727 4.24219 19.4727 9.47266Z" fill="white" fill-opacity="0.313726"/>
<path d="M17.6953 9.88281C17.6953 13.9805 14.3711 17.3047 10.2734 17.3047C7.97266 17.3047 5.91406 16.2539 4.55078 14.6094C5.90625 16.0742 7.84375 16.9922 10 16.9922C14.0977 16.9922 17.4219 13.668 17.4219 9.57031C17.4219 7.77344 16.7852 6.12891 15.7227 4.84375C16.9453 6.16797 17.6953 7.9375 17.6953 9.88281Z" fill="white" fill-opacity="0.313726"/>
<path d="M10 16.9922C14.099 16.9922 17.4219 13.6693 17.4219 9.57031C17.4219 5.47132 14.099 2.14844 10 2.14844C5.90101 2.14844 2.57812 5.47132 2.57812 9.57031C2.57812 13.6693 5.90101 16.9922 10 16.9922Z" fill="#F39E09"/>
<path d="M15.625 4.72656C14.3242 3.60547 12.6328 2.92969 10.7812 2.92969C6.68359 2.92969 3.35938 6.25391 3.35938 10.3516C3.35938 12.2031 4.03516 13.8945 5.15625 15.1953C3.57812 13.832 2.57812 11.8203 2.57812 9.57031C2.57812 5.47266 5.90234 2.14844 10 2.14844C12.2461 2.14844 14.2617 3.14844 15.625 4.72656Z" fill="#E88102"/>
<path d="M13.8086 10.8867L13.7422 10.9258C13.5703 10.2695 13.0781 9.92969 12.3984 9.76562C12.9219 9.5 13.2617 9.04297 13.2422 8.30859V7.76562L13.1641 7.78906C12.9062 6.89844 11.9922 6.57812 10.8672 6.48047V4.88281H9.89453V6.4375C9.64062 6.4375 9.37891 6.44141 9.11719 6.44922V4.88281H8.14453V6.48047C7.93359 6.48437 7.72656 6.48828 7.52344 6.48828V6.48438H6.18359V7.52344C6.18359 7.52344 6.90234 7.50781 6.89062 7.52344C7.28516 7.52344 7.41406 7.75391 7.44922 7.94922V9.76562C7.47656 9.76562 7.51172 9.76562 7.55078 9.77344H7.44922V12.3242C7.43359 12.4492 7.35938 12.6445 7.08203 12.6445C7.09375 12.6563 6.375 12.6445 6.375 12.6445L6.28516 13.1875L6.18359 13.2188V13.8047H7.44922C7.68359 13.8047 7.91797 13.8086 8.14453 13.8086V15.4297H9.11719V13.832C9.38281 13.8359 9.64062 13.8398 9.89453 13.8398V15.4297H10.8672V13.8164C12.5039 13.7227 13.6484 13.3086 13.7891 11.7773C13.7969 11.6914 13.8008 11.6094 13.8047 11.5273V10.8867H13.8086ZM9.14844 7.58984C9.69922 7.58984 11.4219 7.41406 11.4219 8.5625C11.4219 9.66016 9.69922 9.53125 9.14844 9.53516V7.58984ZM9.14844 12.6562V10.5156C9.80859 10.5156 11.875 10.3242 11.875 11.5859C11.875 12.793 9.80469 12.6523 9.14844 12.6562Z" fill="#DB6704"/>
<path d="M13.2344 7.54297C13.125 6.39063 12.1289 6.00391 10.875 5.89453V4.29688H9.90234V5.85156C9.64844 5.85156 9.38672 5.85547 9.125 5.86328V4.29688H8.15234V5.89453C7.94141 5.89844 7.73438 5.90234 7.53125 5.90234V5.89844H6.19141V6.9375C6.19141 6.9375 6.91016 6.92188 6.89844 6.9375C7.29297 6.9375 7.42187 7.16797 7.45703 7.36328V9.17969C7.48437 9.17969 7.51953 9.17969 7.55859 9.1875H7.45703V11.7383C7.44141 11.8633 7.36719 12.0586 7.08984 12.0586C7.10156 12.0703 6.38281 12.0586 6.38281 12.0586L6.19141 13.2188H7.45703C7.69141 13.2188 7.92578 13.2227 8.15234 13.2227V14.8438H9.125V13.2461C9.39063 13.25 9.64844 13.2539 9.90234 13.2539V14.8438H10.875V13.2305C12.5117 13.1367 13.6563 12.7227 13.7969 11.1914C13.9102 9.95703 13.3281 9.40234 12.4023 9.17969C12.9648 8.89062 13.3164 8.38672 13.2344 7.54297ZM11.875 10.9961C11.875 12.2031 9.80859 12.0664 9.14844 12.0664V9.92578C9.80469 9.92578 11.875 9.73828 11.875 10.9961ZM11.4219 7.97656C11.4219 9.07422 9.69922 8.94531 9.14844 8.94922V7.00781C9.69531 7.00781 11.4219 6.83203 11.4219 7.97656Z" fill="#FDD835"/>
<path d="M8.15234 4.29688H9.125V5.4375L7.39062 7.17188C7.31641 7.03906 7.16797 6.93359 6.89844 6.93359C6.91016 6.92188 6.19141 6.93359 6.19141 6.93359V5.89844H7.53125V5.90234C7.73438 5.90234 7.94141 5.89844 8.15234 5.89453V4.29688ZM10.2656 4.29688L9.89844 4.66406V4.29688H10.2656ZM11.2305 11.8477L9.82813 13.25C9.59766 13.25 9.36719 13.2461 9.125 13.2422V13.9531L8.23438 14.8438H8.15234V13.2266C7.92578 13.2266 7.69141 13.2227 7.45703 13.2227H6.19141L6.22656 13.0078L7.17969 12.0547C7.35547 12.0234 7.42578 11.8906 7.44922 11.7852L9.14844 10.0859V12.0703C9.56641 12.0703 10.5664 12.125 11.2305 11.8477ZM11.8438 11.2344C11.8633 11.1602 11.875 11.082 11.875 10.9961C11.875 9.82422 10.0898 9.90625 9.30859 9.92188L10.332 8.89844C10.8945 8.8125 11.4219 8.57812 11.4219 7.97266C11.4219 7.91797 11.418 7.86719 11.4102 7.82031L12.7266 6.50391C13.0078 6.75 13.1914 7.08594 13.2344 7.53906C13.3164 8.38281 12.9648 8.88672 12.3984 9.17578C12.8047 9.27344 13.1445 9.43359 13.3867 9.6875L11.8438 11.2344ZM6.38281 12.0625H6.42969L6.375 12.1172L6.38281 12.0625ZM9.14844 8.94922C9.24609 8.94922 9.38281 8.95312 9.54297 8.95312L7.46094 11.0352V9.6875L9.15234 7.99609L9.14844 8.94922ZM12.2734 6.21875L11.1445 7.34766C10.8945 7.13281 10.5078 7.04688 10.1289 7.01563L11.2109 5.93359C11.6094 5.98828 11.9688 6.07422 12.2734 6.21875ZM10.0937 14.8438L10.8711 14.0664V14.8438H10.0937ZM13.7969 11.1406C13.7969 11.1563 13.793 11.1758 13.793 11.1914C13.6797 12.4102 12.9336 12.9219 11.8086 13.1289L13.7969 11.1406Z" fill="white" fill-opacity="0.313726"/>
<path d="M16.1914 5.47266C11.3867 7.16016 7.52734 10.8672 5.63672 15.5742C5.47266 15.4531 5.3125 15.3281 5.15625 15.1914C4.03516 13.8906 3.35938 12.1992 3.35938 10.3516C3.35938 6.25391 6.68359 2.92969 10.7812 2.92969C12.6328 2.92969 14.3242 3.60547 15.6211 4.72656C15.8281 4.96484 16.0156 5.21484 16.1914 5.47266Z" fill="white" fill-opacity="0.145098"/>
</g>
<defs>
<clipPath id="clip0_40_1504">
<rect width="20" height="20" fill="white"/>
</clipPath>
</defs>
</svg>
