<svg width="20" height="20" viewBox="0 0 20 20" fill="none" xmlns="http://www.w3.org/2000/svg">
<path fill-rule="evenodd" clip-rule="evenodd" d="M13.5713 1.66675H16.2934C17.4197 1.66675 18.3334 2.58833 18.3334 3.72523V6.47017C18.3334 7.60621 17.4197 8.52865 16.2934 8.52865H13.5713C12.4442 8.52865 11.5305 7.60621 11.5305 6.47017V3.72523C11.5305 2.58833 12.4442 1.66675 13.5713 1.66675Z" stroke="#1E242A" stroke-width="1.5" stroke-linecap="round" stroke-linejoin="round"/>
<path fill-rule="evenodd" clip-rule="evenodd" d="M3.70739 1.66675H6.4287C7.55582 1.66675 8.46947 2.58833 8.46947 3.72523V6.47017C8.46947 7.60621 7.55582 8.52865 6.4287 8.52865H3.70739C2.58028 8.52865 1.66663 7.60621 1.66663 6.47017V3.72523C1.66663 2.58833 2.58028 1.66675 3.70739 1.66675Z" stroke="#1E242A" stroke-width="1.5" stroke-linecap="round" stroke-linejoin="round"/>
<path fill-rule="evenodd" clip-rule="evenodd" d="M3.70739 11.4714H6.4287C7.55582 11.4714 8.46947 12.393 8.46947 13.5308V16.2749C8.46947 17.4118 7.55582 18.3333 6.4287 18.3333H3.70739C2.58028 18.3333 1.66663 17.4118 1.66663 16.2749V13.5308C1.66663 12.393 2.58028 11.4714 3.70739 11.4714Z" stroke="#1E242A" stroke-width="1.5" stroke-linecap="round" stroke-linejoin="round"/>
<path fill-rule="evenodd" clip-rule="evenodd" d="M13.5713 11.4714H16.2934C17.4197 11.4714 18.3334 12.393 18.3334 13.5308V16.2749C18.3334 17.4118 17.4197 18.3333 16.2934 18.3333H13.5713C12.4442 18.3333 11.5305 17.4118 11.5305 16.2749V13.5308C11.5305 12.393 12.4442 11.4714 13.5713 11.4714Z" stroke="#1E242A" stroke-width="1.5" stroke-linecap="round" stroke-linejoin="round"/>
</svg>
