<svg width="20" height="20" viewBox="0 0 20 20" fill="none" xmlns="http://www.w3.org/2000/svg">
<g clip-path="url(#clip0_40_1469)">
<path d="M19.6844 12.4185C19.208 14.3391 18.1724 16.0751 16.7087 17.4068C15.245 18.7384 13.4191 19.6058 11.4622 19.8991C9.50528 20.1924 7.50532 19.8985 5.71555 19.0545C3.92578 18.2105 2.4267 16.8544 1.4081 15.1579C0.389509 13.4614 -0.102786 11.5008 -0.00645158 9.52437C0.0898833 7.54793 0.770516 5.64451 1.94927 4.05513C3.12802 2.46574 4.75188 1.26186 6.61525 0.595917C8.47861 -0.0700268 10.4977 -0.168085 12.4168 0.314157C14.9835 0.959129 17.1898 2.59542 18.5522 4.86438C19.9145 7.13334 20.3216 9.84986 19.6844 12.4185Z" fill="#6E7CCA"/>
<path opacity="0.24" d="M19.6845 12.4183C19.1463 14.5773 17.9033 16.4951 16.1523 17.8681C14.4013 19.241 12.2423 19.9907 10.0172 19.9983C9.19517 19.9935 8.37677 19.8886 7.5801 19.6859C5.66631 19.2042 3.93785 18.167 2.61246 16.7048C1.28707 15.2426 0.424023 13.4209 0.132029 11.4692C-0.159966 9.51742 0.132154 7.52291 0.971592 5.73687C1.81103 3.95083 3.16024 2.45315 4.84927 1.43248C6.54384 0.419542 8.50035 -0.0690556 10.4722 0.0282747C12.444 0.125605 14.3429 0.804506 15.9295 1.9794C17.516 3.15429 18.7193 4.77258 19.3875 6.63028C20.0558 8.48798 20.1591 10.5019 19.6845 12.4183Z" fill="white"/>
<path opacity="0.3" d="M19.4001 6.60369L0.128129 11.6029C-0.269811 9.14448 0.264057 6.62603 1.62524 4.5405C2.98642 2.45497 5.07692 0.952501 7.48756 0.327172C9.89821 -0.298158 12.4555 -0.00132929 14.6588 1.15956C16.8621 2.32045 18.5528 4.26182 19.4001 6.60369Z" fill="white"/>
<path d="M17.8785 11.9655C17.4902 13.5247 16.6483 14.9338 15.4592 16.0145C14.2701 17.0952 12.7872 17.799 11.1981 18.0369C9.60896 18.2747 7.98499 18.036 6.53156 17.3509C5.07812 16.6657 3.86051 15.565 3.03271 14.1878C2.20492 12.8106 1.80412 11.2189 1.88101 9.61388C1.95791 8.0089 2.50904 6.46277 3.4647 5.17103C4.42036 3.87929 5.73763 2.89997 7.24991 2.35692C8.76218 1.81387 10.4015 1.73149 11.9606 2.12019C14.0508 2.64129 15.8484 3.97121 16.9582 5.81749C18.0679 7.66377 18.399 9.87522 17.8785 11.9655Z" fill="#6E7CCA"/>
<path d="M9.99841 12.1872L10.0796 12.2653L13.7228 10.1125L10.0859 4.06348L10.0047 4.33218L9.99841 12.1872Z" fill="#FFFDFE"/>
<path d="M10.0859 12.2653V4.06348L6.43958 10.1125L10.0859 12.2653Z" fill="#B0E7FF"/>
<path d="M10.0391 15.8056L10.0859 15.9368L13.7479 10.8032L10.0859 12.956L10.0391 13.0091V15.8056Z" fill="#FFFDFF"/>
<path d="M6.43958 10.8032L10.0859 15.9368V12.956L6.43958 10.8032Z" fill="#B0E7FF"/>
<path d="M10.0859 8.45654V12.2653L13.7291 10.1125L10.0859 8.45654Z" fill="#FFFDFF"/>
<path d="M10.0859 8.45654L6.43958 10.1125L10.0859 12.2653V8.45654Z" fill="#C8F7F7"/>
</g>
<defs>
<clipPath id="clip0_40_1469">
<rect width="20" height="20" fill="white"/>
</clipPath>
</defs>
</svg>
