<svg width="28" height="28" viewBox="0 0 28 28" fill="none" xmlns="http://www.w3.org/2000/svg">
<g clip-path="url(#clip0_106_2779)">
<path d="M27.5584 17.3857C26.8914 20.0745 25.4415 22.5049 23.3924 24.3693C21.3433 26.2336 18.787 27.4479 16.0473 27.8586C13.3076 28.2692 10.5077 27.8577 8.00201 26.6761C5.49634 25.4945 3.39762 23.5959 1.97159 21.2208C0.545557 18.8458 -0.143657 16.1009 -0.00878808 13.3339C0.126081 10.5669 1.07897 7.90212 2.72922 5.67698C4.37947 3.45184 6.65288 1.76641 9.26159 0.834088C11.8703 -0.0982328 14.697 -0.235514 17.3838 0.439625C20.9772 1.34259 24.066 3.63339 25.9733 6.80993C27.8805 9.98647 28.4505 13.7896 27.5584 17.3857Z" fill="#6E7CCA"/>
<path opacity="0.24" d="M27.5582 17.3855C26.8048 20.4081 25.0646 23.0931 22.6132 25.0152C20.1618 26.9374 17.1392 27.9869 14.0241 27.9976C12.8732 27.9908 11.7275 27.8439 10.6121 27.5601C7.93283 26.8858 5.513 25.4337 3.65745 23.3866C1.8019 21.3396 0.593632 18.7892 0.18484 16.0568C-0.223952 13.3243 0.185016 10.532 1.36023 8.03152C2.53544 5.53106 4.42434 3.43431 6.78898 2.00537C9.16137 0.587261 11.9005 -0.0967755 14.6611 0.0394869C17.4216 0.175749 20.08 1.12621 22.3013 2.77106C24.5225 4.41591 26.207 6.68152 27.1425 9.2823C28.0781 11.8831 28.2227 14.7026 27.5582 17.3855Z" fill="white"/>
<path opacity="0.3" d="M27.1602 9.24488L0.179404 16.2438C-0.377711 12.802 0.369704 9.27615 2.27536 6.35641C4.18101 3.43667 7.10771 1.33321 10.4826 0.457748C13.8575 -0.417714 17.4377 -0.00215398 20.5223 1.62309C23.6069 3.24833 25.974 5.96626 27.1602 9.24488Z" fill="white"/>
<path d="M25.0301 16.7512C24.4865 18.934 23.3078 20.9067 21.6431 22.4197C19.9783 23.9327 17.9023 24.918 15.6775 25.251C13.4528 25.584 11.1792 25.2498 9.1444 24.2906C7.10959 23.3314 5.40493 21.7904 4.24602 19.8623C3.0871 17.9343 2.52599 15.7058 2.63364 13.4588C2.74129 11.2119 3.51287 9.04729 4.8508 7.23885C6.18873 5.43042 8.0329 4.05937 10.1501 3.2991C12.2673 2.53883 14.5624 2.42349 16.7451 2.96768C19.6713 3.69722 22.188 5.55911 23.7416 8.1439C25.2953 10.7287 25.7588 13.8247 25.0301 16.7512Z" fill="#6E7CCA"/>
<path d="M13.998 17.0617L14.1118 17.1711L19.2122 14.1572L14.1205 5.68848L14.0068 6.06467L13.998 17.0617Z" fill="#FFFDFE"/>
<path d="M14.1205 17.1711V5.68848L9.01562 14.1572L14.1205 17.1711Z" fill="#B0E7FF"/>
<path d="M14.0547 22.1273L14.1203 22.311L19.247 15.124L14.1203 18.1379L14.0547 18.2123V22.1273Z" fill="#FFFDFF"/>
<path d="M9.01562 15.124L14.1205 22.311V18.1379L9.01562 15.124Z" fill="#B0E7FF"/>
<path d="M14.1206 11.8389V17.1712L19.2211 14.1573L14.1206 11.8389Z" fill="#FFFDFF"/>
<path d="M14.1205 11.8389L9.01562 14.1573L14.1205 17.1712V11.8389Z" fill="#C8F7F7"/>
</g>
<defs>
<clipPath id="clip0_106_2779">
<rect width="28" height="28" fill="white"/>
</clipPath>
</defs>
</svg>
