<svg width="16" height="16" viewBox="0 0 16 16" fill="none" xmlns="http://www.w3.org/2000/svg">
<path d="M7.74048 1.33325C11.2794 1.33325 14.1487 4.13914 14.1487 7.59985C14.1486 9.2323 13.5092 10.7182 12.4631 11.8333L14.5217 13.842C14.7146 14.0302 14.715 14.3359 14.5227 14.5247C14.3478 14.6962 14.0735 14.7123 13.8801 14.5725L13.8245 14.5256L11.7405 12.4924C10.6439 13.3506 9.2541 13.8655 7.74048 13.8655C4.20197 13.8652 1.33349 11.0602 1.33325 7.59985C1.33325 4.13929 4.20182 1.3335 7.74048 1.33325ZM7.74048 2.2981C4.7469 2.29834 2.32056 4.67234 2.32056 7.59985C2.32079 10.5272 4.74705 12.9004 7.74048 12.9006C10.7341 12.9006 13.1611 10.5273 13.1614 7.59985C13.1614 4.67218 10.7343 2.2981 7.74048 2.2981Z" fill="#1E242A"/>
</svg>
