<svg width="20" height="20" viewBox="0 0 20 20" fill="none" xmlns="http://www.w3.org/2000/svg">
<path d="M9.99996 18.3332C14.6023 18.3332 18.3333 14.6022 18.3333 9.99984C18.3333 5.39746 14.6023 1.6665 9.99996 1.6665C5.39759 1.6665 1.66663 5.39746 1.66663 9.99984C1.66663 14.6022 5.39759 18.3332 9.99996 18.3332Z" fill="#F1D33D"/>
<path d="M9.99996 18.3333C12.2101 18.3333 14.3297 17.4554 15.8925 15.8926C17.4553 14.3298 18.3333 12.2101 18.3333 10H1.66663C1.66663 12.2101 2.5446 14.3298 4.1074 15.8926C4.88122 16.6664 5.79988 17.2802 6.81093 17.699C7.82198 18.1178 8.90561 18.3333 9.99996 18.3333Z" fill="#E7A324"/>
<path d="M9.9999 17.7891C14.2424 17.7891 17.6816 14.3499 17.6816 10.1074C17.6816 5.86498 14.2424 2.42578 9.9999 2.42578C5.75744 2.42578 2.31824 5.86498 2.31824 10.1074C2.31824 14.3499 5.75744 17.7891 9.9999 17.7891Z" fill="url(#paint0_linear_40_1560)"/>
<path d="M9.99997 17.7865C7.97375 17.7861 6.02977 16.985 4.59157 15.5578C3.15336 14.1305 2.33746 12.1927 2.32163 10.1665V10.2307C2.30609 12.2838 3.10592 14.2592 4.54553 15.7232C5.98513 17.1872 7.94684 18.0201 9.99997 18.039C12.0535 18.021 14.016 17.1886 15.4563 15.7247C16.8966 14.2608 17.697 12.2851 17.6816 10.2315V10.1673C17.6656 12.1939 16.8491 14.132 15.4102 15.5592C13.9713 16.9864 12.0266 17.787 9.99997 17.7865Z" fill="#D38E26"/>
<path d="M9.99996 16.3332C13.4978 16.3332 16.3333 13.4976 16.3333 9.99984C16.3333 6.50203 13.4978 3.6665 9.99996 3.6665C6.50216 3.6665 3.66663 6.50203 3.66663 9.99984C3.66663 13.4976 6.50216 16.3332 9.99996 16.3332Z" fill="#F9EE60"/>
<path d="M9.99996 3.6665C8.32026 3.6665 6.70935 4.33376 5.52162 5.52149C4.33389 6.70922 3.66663 8.32013 3.66663 9.99984H16.3333C16.3333 8.32013 15.666 6.70922 14.4783 5.52149C13.2906 4.33376 11.6797 3.6665 9.99996 3.6665Z" fill="#E3A22C"/>
<path d="M9.99996 15.8332C13.2216 15.8332 15.8333 13.2215 15.8333 9.99984C15.8333 6.77818 13.2216 4.1665 9.99996 4.1665C6.7783 4.1665 4.16663 6.77818 4.16663 9.99984C4.16663 13.2215 6.7783 15.8332 9.99996 15.8332Z" fill="url(#paint1_linear_40_1560)"/>
<path fill-rule="evenodd" clip-rule="evenodd" d="M10.8283 8.77337L10.8124 7.73503H13.1291V6.1792H6.83325V7.73503H9.14992V8.77253C7.24992 8.8417 5.83325 9.2217 5.83325 9.6717C5.83325 10.1217 7.24992 10.505 9.15242 10.5709V13.8209H10.8124V10.5709H10.8474C12.7499 10.5 14.1666 10.1209 14.1666 9.6717C14.1666 9.22253 12.7224 8.8442 10.8283 8.77337ZM9.15242 10.3284C7.49325 10.2592 6.24825 9.94837 6.24825 9.60253C6.24825 9.2567 7.49325 8.98003 9.15242 8.87587V10.0175C9.25659 10.0175 9.56909 10.0517 10.0174 10.0517C10.5358 10.0517 10.8124 10.0175 10.8508 10.0175L10.8333 8.87753C12.4841 8.94753 13.7208 9.25753 13.7208 9.60253C13.7208 9.94753 12.4758 10.225 10.8158 10.3284C10.2618 10.3616 9.70636 10.3616 9.15242 10.3284Z" fill="white"/>
<defs>
<linearGradient id="paint0_linear_40_1560" x1="9.9999" y1="2.36078" x2="9.9999" y2="17.8116" gradientUnits="userSpaceOnUse">
<stop stop-color="#FAEE5E"/>
<stop offset="1" stop-color="#EDC12D"/>
</linearGradient>
<linearGradient id="paint1_linear_40_1560" x1="9.99996" y1="4.10484" x2="9.99996" y2="15.7932" gradientUnits="userSpaceOnUse">
<stop stop-color="#EFC938"/>
<stop offset="1" stop-color="#F1B62E"/>
</linearGradient>
</defs>
</svg>
