<svg width="20" height="20" viewBox="0 0 20 20" fill="none" xmlns="http://www.w3.org/2000/svg">
<g clip-path="url(#clip0_40_1534)">
<path d="M19.7 12.4217C19.2238 14.3417 18.1889 16.0773 16.726 17.4089C15.2632 18.7405 13.4382 19.6082 11.4821 19.9023C9.52593 20.1965 7.52649 19.9037 5.73676 19.0611C3.94703 18.2186 2.44746 16.864 1.42778 15.1689C0.408103 13.4739 -0.0858449 11.5144 0.00843619 9.5385C0.102717 7.5626 0.780991 5.65908 1.95743 4.06878C3.13387 2.47848 4.75561 1.27289 6.61743 0.604551C8.47925 -0.0637868 10.4975 -0.164833 12.4167 0.314197C14.987 0.955719 17.1977 2.59107 18.5632 4.86114C19.9288 7.13121 20.3376 9.85042 19.7 12.4217Z" fill="#1A5AFF"/>
<path opacity="0.24" d="M9.99835 19.9984C9.18255 19.9927 8.37046 19.8877 7.57998 19.686C5.01394 19.041 2.80818 17.4051 1.44595 15.1369C0.0837147 12.8687 -0.323913 10.1529 0.312368 7.58473C0.791252 5.66671 1.82797 3.93369 3.29151 2.60471C4.75505 1.27573 6.57971 0.410429 8.53489 0.118172C10.4901 -0.174085 12.488 0.119818 14.2762 0.962738C16.0644 1.80566 17.5626 3.15976 18.5814 4.85391C19.4926 6.37184 19.9844 8.10452 20.0066 9.87482C20.0288 11.6451 19.5805 13.3896 18.7075 14.9298C17.8346 16.4701 16.5683 17.751 15.0382 18.6415C13.508 19.532 11.7688 20.0003 9.99835 19.9984ZM9.99835 1.87625C8.18629 1.87765 6.42671 2.48486 4.99944 3.60132C3.57217 4.71777 2.55914 6.27937 2.12146 8.03778C1.82419 9.08529 1.74053 10.1819 1.87546 11.2623C2.01039 12.3428 2.36116 13.3851 2.90691 14.3274C3.45266 15.2696 4.18226 16.0925 5.05235 16.7471C5.92244 17.4018 6.91526 17.8749 7.9718 18.1382C9.02834 18.4016 10.127 18.4498 11.2026 18.2801C12.2782 18.1104 13.3086 17.7262 14.2328 17.1504C15.1569 16.5746 15.9559 15.8188 16.5821 14.9281C17.2084 14.0373 17.6492 13.0298 17.8784 11.9653C18.399 9.87542 18.0684 7.66434 16.9592 5.81815C15.8501 3.97195 14.0533 2.64175 11.9637 2.11996C11.3208 1.95982 10.6609 1.87799 9.99835 1.87625Z" fill="white"/>
<path opacity="0.3" d="M19.4 6.60369L0.128007 11.6029C-0.269933 9.14448 0.263934 6.62603 1.62512 4.5405C2.9863 2.45497 5.0768 0.952501 7.48744 0.327172C9.89809 -0.298158 12.4553 -0.00132929 14.6586 1.15956C16.862 2.32045 18.5527 4.26182 19.4 6.60369Z" fill="white"/>
<path d="M17.8784 11.9653C17.49 13.5246 16.6479 14.9336 15.4585 16.0142C14.2692 17.0948 12.7861 17.7984 11.1969 18.0361C9.60764 18.2737 7.98361 18.0347 6.53022 17.3492C5.07684 16.6637 3.85938 15.5626 3.03186 14.1852C2.20433 12.8077 1.80391 11.2158 1.88124 9.61073C1.95857 8.00567 2.51017 6.4596 3.46629 5.16807C4.4224 3.87654 5.74006 2.89758 7.25261 2.35501C8.76517 1.81244 10.4047 1.73064 11.9637 2.11995C14.0533 2.64173 15.8501 3.97194 16.9593 5.81814C18.0684 7.66433 18.399 9.87541 17.8784 11.9653Z" fill="#1A5AFF"/>
<path d="M14.2883 6.30371V9.14077H11.42V14.8774H8.57985V9.02828C8.57985 8.30622 8.86647 7.61369 9.37675 7.10282C9.88704 6.59196 10.5792 6.30454 11.3013 6.30371H14.2883ZM8.57985 6.30371C8.58026 6.67639 8.50716 7.0455 8.36473 7.38989C8.2223 7.73428 8.01334 8.0472 7.74981 8.31073C7.48629 8.57426 7.17337 8.78322 6.82897 8.92565C6.48458 9.06808 6.11548 9.14118 5.74279 9.14077H5.71155V6.30371H8.57985Z" fill="white"/>
</g>
<defs>
<clipPath id="clip0_40_1534">
<rect width="20" height="20" fill="white"/>
</clipPath>
</defs>
</svg>
