<svg width="20" height="20" viewBox="0 0 20 20" fill="none" xmlns="http://www.w3.org/2000/svg">
<ellipse cx="9.99996" cy="14.5834" rx="5.83333" ry="2.91667" stroke="#1E242A" stroke-width="1.3" stroke-linejoin="round"/>
<ellipse cx="9.99996" cy="5.83333" rx="3.33333" ry="3.33333" stroke="#1E242A" stroke-width="1.3" stroke-linejoin="round"/>
<path fill-rule="evenodd" clip-rule="evenodd" d="M16.6389 8.58341C16.6389 8.42233 16.7695 8.29175 16.9306 8.29175L17.6624 8.29175C17.9202 8.29175 18.1559 8.43739 18.2711 8.66794L18.5525 9.23074C18.6246 9.37481 18.5662 9.55 18.4221 9.62204C18.278 9.69408 18.1028 9.63568 18.0308 9.49161L17.8397 9.10944L16.8884 10.5605C16.6139 10.9793 15.9964 10.9682 15.7371 10.5398L14.9951 9.3139C14.9562 9.2497 14.8623 9.25187 14.8265 9.3178L13.8813 11.056C13.8044 11.1975 13.6273 11.2499 13.4858 11.1729C13.3443 11.096 13.2919 10.9189 13.3689 10.7774L14.314 9.03915C14.565 8.57762 15.222 8.56241 15.4941 9.01183L16.2361 10.2377C16.2732 10.2989 16.3614 10.3005 16.4006 10.2407L17.2959 8.87507H16.9306C16.7695 8.87507 16.6389 8.74449 16.6389 8.58341Z" fill="#1E242A" stroke="#1E242A" stroke-width="0.5" stroke-linecap="round"/>
</svg>
